<svg width="136" height="18" viewBox="0 0 136 18" fill="none" xmlns="http://www.w3.org/2000/svg">
<path d="M1.21813 14.48C1.74079 14.48 2.13546 14.3733 2.40213 14.16C2.67946 13.9573 2.81813 13.6373 2.81813 13.2V8H5.85813V10.48C5.85813 10.5973 5.87946 10.6827 5.92213 10.736C5.97546 10.7787 6.06079 10.8 6.17813 10.8H6.81813C6.92479 10.8 6.97813 11.3333 6.97813 12.4C6.97813 13.4667 6.92479 14 6.81813 14H6.49813C6.38079 14 6.25813 13.9947 6.13013 13.984C6.01279 13.9627 5.90613 13.9307 5.81013 13.888C5.71413 14.6027 5.47946 15.248 5.10613 15.824C4.74346 16.4 4.25279 16.8533 3.63413 17.184C3.01546 17.5147 2.29013 17.68 1.45813 17.68H0.658125L0.418125 14.48H1.21813ZM7.8205 10.8C7.77783 10.672 7.74583 10.5173 7.7245 10.336C7.70317 10.144 7.6925 9.952 7.6925 9.76C7.6925 9.13067 7.84183 8.56 8.1405 8.048C8.44983 7.536 8.86583 7.136 9.3885 6.848C9.92183 6.54933 10.5032 6.4 11.1325 6.4C11.7938 6.4 12.3752 6.53867 12.8765 6.816C13.3885 7.09333 13.7832 7.48267 14.0605 7.984C14.3485 8.48533 14.4925 9.05067 14.4925 9.68C14.4925 9.88267 14.4712 10.0853 14.4285 10.288C14.3965 10.4907 14.3538 10.6613 14.3005 10.8H15.4525C15.5058 10.8 15.5432 10.896 15.5645 11.088C15.5965 11.28 15.6125 11.7173 15.6125 12.4C15.6125 13.0827 15.5965 13.52 15.5645 13.712C15.5432 13.904 15.5058 14 15.4525 14H13.2125C12.6792 14 12.2418 13.9733 11.9005 13.92C11.5698 13.8667 11.2872 13.7707 11.0525 13.632C10.8498 13.7493 10.5778 13.84 10.2365 13.904C9.89517 13.968 9.5005 14 9.0525 14H6.8125C6.70583 14 6.6525 13.4667 6.6525 12.4C6.6525 11.3333 6.70583 10.8 6.8125 10.8H7.8205ZM11.1325 9.36C10.9512 9.36 10.8125 9.41333 10.7165 9.52C10.6205 9.616 10.5725 9.74933 10.5725 9.92C10.5725 10.08 10.6258 10.2453 10.7325 10.416C10.8392 10.576 10.9725 10.704 11.1325 10.8C11.2925 10.7253 11.4258 10.6027 11.5325 10.432C11.6392 10.2507 11.6925 10.08 11.6925 9.92C11.6925 9.74933 11.6445 9.616 11.5485 9.52C11.4525 9.41333 11.3138 9.36 11.1325 9.36ZM9.6125 5.52V3.2H12.6525V5.52H9.6125ZM16.3331 10.8C16.4505 10.8 16.5305 10.784 16.5731 10.752C16.6265 10.7093 16.6531 10.6453 16.6531 10.56V8H19.6131V10.56C19.6131 10.624 19.6345 10.6827 19.6771 10.736C19.7305 10.7787 19.7998 10.8 19.8851 10.8C19.9811 10.8 20.0505 10.7787 20.0931 10.736C20.1465 10.6933 20.1731 10.6347 20.1731 10.56V8H23.1331V10.544C23.1331 10.6187 23.1598 10.6827 23.2131 10.736C23.2665 10.7787 23.3305 10.8 23.4051 10.8C23.4798 10.8 23.5438 10.7787 23.5971 10.736C23.6611 10.6827 23.6931 10.6187 23.6931 10.544V8H26.6531V10.72C26.6531 11.7227 26.3545 12.5227 25.7571 13.12C25.1705 13.7067 24.3758 14 23.3731 14C22.9998 14 22.6638 13.9573 22.3651 13.872C22.0665 13.776 21.8158 13.632 21.6131 13.44C21.4105 13.6427 21.1758 13.7867 20.9091 13.872C20.6425 13.9573 20.2905 14 19.8531 14C19.4798 14 19.1438 13.9573 18.8451 13.872C18.5465 13.776 18.2958 13.632 18.0931 13.44C17.8905 13.6427 17.6558 13.7867 17.3891 13.872C17.1225 13.9573 16.7705 14 16.3331 14H15.4531C15.3465 14 15.2931 13.4667 15.2931 12.4C15.2931 11.7173 15.3091 11.28 15.3411 11.088C15.3731 10.896 15.4105 10.8 15.4531 10.8H16.3331ZM37.3031 13.12C37.3031 14.0693 37.1325 14.8853 36.7911 15.568C36.4498 16.2507 35.9591 16.7733 35.3191 17.136C34.6898 17.4987 33.9378 17.68 33.0631 17.68H30.6631L30.4231 14.56H33.6231C33.8578 14.56 34.0338 14.5067 34.1511 14.4C34.2791 14.304 34.3431 14.1707 34.3431 14H33.9431C32.7058 14 31.8205 13.744 31.2871 13.232C30.7645 12.7093 30.5031 11.8453 30.5031 10.64C30.5031 9.95733 30.6418 9.344 30.9191 8.8C31.2071 8.24533 31.6018 7.81333 32.1031 7.504C32.6151 7.19467 33.2018 7.04 33.8631 7.04C34.9511 7.04 35.7938 7.37067 36.3911 8.032C36.9991 8.68267 37.3031 9.60533 37.3031 10.8V13.12ZM33.3831 10.48C33.3831 10.6187 33.3991 10.7307 33.4311 10.816C33.4738 10.8907 33.5325 10.9493 33.6071 10.992C33.6925 11.024 33.8045 11.04 33.9431 11.04H34.4231V10.56C34.4231 10.3573 34.3805 10.2027 34.2951 10.096C34.2098 9.97867 34.0711 9.92 33.8791 9.92C33.7191 9.92 33.5965 9.97333 33.5111 10.08C33.4258 10.176 33.3831 10.3093 33.3831 10.48ZM54.2638 10.544C54.2638 10.6187 54.2904 10.6827 54.3438 10.736C54.3971 10.7787 54.4611 10.8 54.5358 10.8C54.6104 10.8 54.6744 10.7787 54.7278 10.736C54.7918 10.6827 54.8238 10.6187 54.8238 10.544V8H57.7838V10.72C57.7838 11.7227 57.4851 12.5227 56.8878 13.12C56.3011 13.7067 55.5064 14 54.5038 14C54.1304 14 53.7944 13.9573 53.4958 13.872C53.1971 13.776 52.9464 13.632 52.7438 13.44C52.5838 13.632 52.3864 13.776 52.1518 13.872C51.9171 13.9573 51.6344 14 51.3038 14C51.1864 14 51.0691 13.9893 50.9518 13.968C50.8451 13.9467 50.7491 13.9147 50.6638 13.872C50.5571 14.6613 50.3064 15.3387 49.9118 15.904C49.5171 16.48 48.9998 16.9173 48.3598 17.216C47.7304 17.5253 47.0051 17.68 46.1838 17.68H45.4638C44.0664 17.68 42.9678 17.264 42.1678 16.432C41.3784 15.6107 40.9838 14.48 40.9838 13.04V9.6H44.0238V12.96C44.0238 13.4827 44.1464 13.8667 44.3918 14.112C44.6371 14.3573 45.0211 14.48 45.5438 14.48H46.1838C46.5251 14.48 46.8131 14.4267 47.0478 14.32C47.2931 14.224 47.4744 14.08 47.5918 13.888C47.7198 13.696 47.7838 13.4667 47.7838 13.2V8H50.7438V10.56C50.7438 10.624 50.7651 10.6827 50.8078 10.736C50.8611 10.7787 50.9304 10.8 51.0158 10.8C51.1118 10.8 51.1811 10.7787 51.2238 10.736C51.2771 10.6933 51.3038 10.6347 51.3038 10.56V8H54.2638V10.544ZM51.5438 4.24V1.92H53.9438V4.24H51.5438ZM52.7278 7.04V4.72H55.1438V7.04H52.7278ZM50.3438 7.04V4.72H52.7598V7.04H50.3438ZM62.2644 13.12C62.2644 13.9947 62.083 14.7787 61.7204 15.472C61.3684 16.1653 60.8564 16.704 60.1844 17.088C59.523 17.4827 58.7497 17.68 57.8644 17.68H56.0244L55.7844 14.48H57.6244C58.147 14.48 58.5417 14.3733 58.8084 14.16C59.0857 13.9573 59.2244 13.6373 59.2244 13.2V8H62.2644V13.12ZM59.2244 7.04V4.72H62.2644V7.04H59.2244ZM67.7019 13.12C67.7019 13.9947 67.5205 14.7787 67.1579 15.472C66.8059 16.1653 66.2939 16.704 65.6219 17.088C64.9605 17.4827 64.1872 17.68 63.3019 17.68H62.5019L62.2619 14.48H63.0619C63.5845 14.48 63.9792 14.3733 64.2459 14.16C64.5232 13.9573 64.6619 13.6373 64.6619 13.2V8H67.7019V13.12ZM75.9438 13.12C75.9438 14.0693 75.7731 14.8853 75.4318 15.568C75.0904 16.2507 74.5998 16.7733 73.9598 17.136C73.3304 17.4987 72.5784 17.68 71.7038 17.68H69.3038L69.0638 14.56H72.2638C72.4984 14.56 72.6744 14.5067 72.7918 14.4C72.9198 14.304 72.9838 14.1707 72.9838 14H72.5838C71.3464 14 70.4611 13.744 69.9278 13.232C69.4051 12.7093 69.1438 11.8453 69.1438 10.64C69.1438 9.95733 69.2824 9.344 69.5598 8.8C69.8478 8.24533 70.2424 7.81333 70.7438 7.504C71.2558 7.19467 71.8424 7.04 72.5038 7.04C73.5918 7.04 74.4344 7.37067 75.0318 8.032C75.6398 8.68267 75.9438 9.60533 75.9438 10.8V13.12ZM72.0238 10.48C72.0238 10.6187 72.0398 10.7307 72.0718 10.816C72.1144 10.8907 72.1731 10.9493 72.2478 10.992C72.3331 11.024 72.4451 11.04 72.5838 11.04H73.0638V10.56C73.0638 10.3573 73.0211 10.2027 72.9358 10.096C72.8504 9.97867 72.7118 9.92 72.5198 9.92C72.3598 9.92 72.2371 9.97333 72.1518 10.08C72.0664 10.176 72.0238 10.3093 72.0238 10.48ZM79.6244 10.96C79.6244 10.608 79.6724 10.2667 79.7684 9.936C79.8644 9.59467 80.0137 9.25333 80.2164 8.912C80.419 8.57067 80.6857 8.21333 81.0164 7.84L80.3284 7.12L82.5044 4.96C83.6244 5.984 84.4724 6.832 85.0484 7.504C85.6244 8.176 86.0084 8.75733 86.2004 9.248C86.403 9.728 86.5044 10.2453 86.5044 10.8C86.5044 11.44 86.355 12.016 86.0564 12.528C85.7577 13.0293 85.3417 13.4293 84.8084 13.728C84.275 14.016 83.667 14.16 82.9844 14.16C81.9497 14.16 81.1284 13.872 80.5204 13.296C79.923 12.7093 79.6244 11.9307 79.6244 10.96ZM83.6244 10.64C83.6244 10.5333 83.603 10.4373 83.5604 10.352C83.5284 10.256 83.4697 10.16 83.3844 10.064C83.3097 9.968 83.203 9.86667 83.0644 9.76C82.8617 9.92 82.7177 10.0693 82.6324 10.208C82.547 10.336 82.5044 10.48 82.5044 10.64C82.5044 10.7893 82.5524 10.9067 82.6484 10.992C82.755 11.0773 82.8937 11.12 83.0644 11.12C83.171 11.12 83.267 11.104 83.3524 11.072C83.4377 11.0293 83.5017 10.976 83.5444 10.912C83.5977 10.8373 83.6244 10.7467 83.6244 10.64ZM91.7806 10.8C91.834 10.8 91.8713 10.896 91.8926 11.088C91.9246 11.28 91.9406 11.7173 91.9406 12.4C91.9406 13.0827 91.9246 13.52 91.8926 13.712C91.8713 13.904 91.834 14 91.7806 14H90.9806C89.9566 14 89.178 13.7173 88.6446 13.152C88.122 12.5867 87.8606 11.776 87.8606 10.72V3.76H90.9006V10.48C90.9006 10.5973 90.922 10.6827 90.9646 10.736C91.018 10.7787 91.1033 10.8 91.2206 10.8H91.7806ZM98.4213 0.24L98.8213 2L92.4213 4.32V2.4L98.4213 0.24ZM95.3813 10.8C95.4773 10.8 95.5519 10.7787 95.6053 10.736C95.6693 10.6827 95.7013 10.624 95.7013 10.56C95.7013 10.5067 95.6799 10.448 95.6373 10.384C95.5946 10.3093 95.5359 10.2347 95.4613 10.16L92.4213 7.2V4.96L98.9813 2.56L99.7013 5.6L96.5013 6.8L97.7813 8.08C98.6026 8.90133 99.2426 9.504 99.7013 9.888C100.171 10.2613 100.549 10.5067 100.837 10.624C101.136 10.7413 101.477 10.8 101.861 10.8C101.968 10.8 102.021 11.3333 102.021 12.4C102.021 13.4667 101.968 14 101.861 14C101.168 14 100.624 13.9787 100.229 13.936C99.8453 13.8827 99.5253 13.792 99.2693 13.664C99.0133 13.5253 98.7679 13.3173 98.5333 13.04C98.3839 13.232 98.1813 13.4027 97.9253 13.552C97.6799 13.6907 97.3866 13.8027 97.0453 13.888C96.7039 13.9627 96.3359 14 95.9413 14H91.7812C91.6746 14 91.6212 13.4667 91.6212 12.4C91.6212 11.7173 91.6372 11.28 91.6692 11.088C91.7012 10.896 91.7386 10.8 91.7812 10.8H95.3813ZM102.739 10.8C102.857 10.8 102.937 10.784 102.979 10.752C103.033 10.7093 103.059 10.6453 103.059 10.56V8H106.019V10.56C106.019 10.624 106.041 10.6827 106.083 10.736C106.137 10.7787 106.206 10.8 106.291 10.8C106.387 10.8 106.457 10.7787 106.499 10.736C106.553 10.6933 106.579 10.6347 106.579 10.56V8H109.539V10.544C109.539 10.6187 109.566 10.6827 109.619 10.736C109.673 10.7787 109.737 10.8 109.811 10.8C109.886 10.8 109.95 10.7787 110.003 10.736C110.067 10.6827 110.099 10.6187 110.099 10.544V8H113.059V10.72C113.059 11.7227 112.761 12.5227 112.163 13.12C111.577 13.7067 110.782 14 109.779 14C109.406 14 109.07 13.9573 108.771 13.872C108.473 13.776 108.222 13.632 108.019 13.44C107.817 13.6427 107.582 13.7867 107.315 13.872C107.049 13.9573 106.697 14 106.259 14C105.886 14 105.55 13.9573 105.251 13.872C104.953 13.776 104.702 13.632 104.499 13.44C104.297 13.6427 104.062 13.7867 103.795 13.872C103.529 13.9573 103.177 14 102.739 14H101.859C101.753 14 101.699 13.4667 101.699 12.4C101.699 11.7173 101.715 11.28 101.747 11.088C101.779 10.896 101.817 10.8 101.859 10.8H102.739ZM106.819 4.24V1.92H109.219V4.24H106.819ZM108.003 7.04V4.72H110.419V7.04H108.003ZM105.619 7.04V4.72H108.035V7.04H105.619ZM121.303 13.12C121.303 14.0693 121.132 14.8853 120.791 15.568C120.45 16.2507 119.959 16.7733 119.319 17.136C118.69 17.4987 117.938 17.68 117.063 17.68H114.663L114.423 14.56H117.623C117.858 14.56 118.034 14.5067 118.151 14.4C118.279 14.304 118.343 14.1707 118.343 14H117.943C116.706 14 115.82 13.744 115.287 13.232C114.764 12.7093 114.503 11.8453 114.503 10.64C114.503 9.95733 114.642 9.344 114.919 8.8C115.207 8.24533 115.602 7.81333 116.103 7.504C116.615 7.19467 117.202 7.04 117.863 7.04C118.951 7.04 119.794 7.37067 120.391 8.032C120.999 8.68267 121.303 9.60533 121.303 10.8V13.12ZM117.383 10.48C117.383 10.6187 117.399 10.7307 117.431 10.816C117.474 10.8907 117.532 10.9493 117.607 10.992C117.692 11.024 117.804 11.04 117.943 11.04H118.423V10.56C118.423 10.3573 118.38 10.2027 118.295 10.096C118.21 9.97867 118.071 9.92 117.879 9.92C117.719 9.92 117.596 9.97333 117.511 10.08C117.426 10.176 117.383 10.3093 117.383 10.48ZM122.093 14.48C122.616 14.48 123.01 14.3733 123.277 14.16C123.554 13.9573 123.693 13.6373 123.693 13.2V8H126.733V10.48C126.733 10.5973 126.754 10.6827 126.797 10.736C126.85 10.7787 126.936 10.8 127.053 10.8H127.693C127.8 10.8 127.853 11.3333 127.853 12.4C127.853 13.4667 127.8 14 127.693 14H127.373C127.256 14 127.133 13.9947 127.005 13.984C126.888 13.9627 126.781 13.9307 126.685 13.888C126.589 14.6027 126.354 15.248 125.981 15.824C125.618 16.4 125.128 16.8533 124.509 17.184C123.89 17.5147 123.165 17.68 122.333 17.68H121.533L121.293 14.48H122.093ZM128.808 10.8C128.776 10.7147 128.749 10.6187 128.728 10.512C128.706 10.3947 128.685 10.272 128.664 10.144C128.653 10.016 128.648 9.888 128.648 9.76C128.648 9.20533 128.776 8.672 129.032 8.16C129.298 7.63733 129.688 7.216 130.2 6.896C130.722 6.56533 131.352 6.4 132.088 6.4C133.165 6.4 133.981 6.71467 134.536 7.344C135.09 7.96267 135.368 8.87467 135.368 10.08V10.72C135.368 11.7547 135.026 12.56 134.344 13.136C133.672 13.712 132.733 14 131.528 14H127.688C127.581 14 127.527 13.4667 127.527 12.4C127.527 11.7173 127.543 11.28 127.575 11.088C127.607 10.896 127.645 10.8 127.688 10.8H128.808ZM132.488 10.88C132.52 10.8053 132.541 10.704 132.552 10.576C132.562 10.4373 132.568 10.2827 132.568 10.112C132.568 9.87733 132.52 9.696 132.424 9.568C132.338 9.42933 132.2 9.36 132.008 9.36C131.912 9.36 131.826 9.38133 131.752 9.424C131.688 9.46667 131.634 9.52533 131.592 9.6C131.549 9.67467 131.528 9.75467 131.528 9.84C131.528 10 131.56 10.1493 131.624 10.288C131.698 10.4267 131.805 10.5493 131.944 10.656C132.093 10.752 132.274 10.8267 132.488 10.88ZM130.568 5.52V3.2H133.608V5.52H130.568Z" fill="#198754"/>
</svg>
