<svg width="52" height="52" viewBox="0 0 52 52" fill="none" xmlns="http://www.w3.org/2000/svg">
<path fill-rule="evenodd" clip-rule="evenodd" d="M43.7047 12.6164L50.8332 36.5777C51.6437 39.3012 49.3977 42 46.311 42L36 42L26 26V42L5.68789 42C2.59917 42 0.353085 39.3012 1.16857 36.5736L8.29812 12.6123C8.66431 11.3613 9.90937 10.5 11.3136 10.5H17.1117C16.7577 9.67969 16.538 8.79785 16.538 7.875C16.538 3.52734 20.7345 0 25.998 0C31.2614 0 35.3725 3.52734 35.3725 7.875C35.3725 8.79785 35.1528 9.75352 34.7988 10.5H40.6872C42.0934 10.5 43.3336 11.3613 43.7047 12.6164ZM22.7877 7.875C22.7877 9.31875 24.2817 10.5 26.0004 10.5C27.7191 10.5 29.1253 9.32039 29.1253 7.875C29.1253 6.42961 27.722 5.25 26.0004 5.25C24.2817 5.25 22.7877 6.43125 22.7877 7.875Z" fill="#198754"/>
<path d="M2.14157 48.174C2.33104 48.174 2.4741 48.1353 2.57077 48.058C2.6713 47.9845 2.72157 47.8685 2.72157 47.71V45.825H3.82357V46.724C3.82357 46.7665 3.8313 46.7975 3.84677 46.8168C3.8661 46.8323 3.89704 46.84 3.93957 46.84H4.17157C4.21024 46.84 4.22957 47.0333 4.22957 47.42C4.22957 47.8067 4.21024 48 4.17157 48H4.05557C4.01304 48 3.96857 47.9981 3.92217 47.9942C3.87964 47.9865 3.84097 47.9749 3.80617 47.9594C3.77137 48.2185 3.6863 48.4524 3.55097 48.6612C3.4195 48.87 3.24164 49.0343 3.01737 49.1542C2.7931 49.2741 2.53017 49.334 2.22857 49.334H1.93857L1.85157 48.174H2.14157ZM4.53493 46.84C4.51946 46.7936 4.50786 46.7375 4.50013 46.6718C4.4924 46.6022 4.48853 46.5326 4.48853 46.463C4.48853 46.2349 4.54266 46.028 4.65093 45.8424C4.76306 45.6568 4.91386 45.5118 5.10333 45.4074C5.29666 45.2991 5.5074 45.245 5.73553 45.245C5.97526 45.245 6.186 45.2953 6.36773 45.3958C6.55333 45.4963 6.6964 45.6375 6.79693 45.8192C6.90133 46.0009 6.95353 46.2059 6.95353 46.434C6.95353 46.5075 6.9458 46.5809 6.93033 46.6544C6.91873 46.7279 6.90326 46.7897 6.88393 46.84H7.30153C7.32086 46.84 7.3344 46.8748 7.34213 46.9444C7.35373 47.014 7.35953 47.1725 7.35953 47.42C7.35953 47.6675 7.35373 47.826 7.34213 47.8956C7.3344 47.9652 7.32086 48 7.30153 48H6.48953C6.2962 48 6.13766 47.9903 6.01393 47.971C5.89406 47.9517 5.7916 47.9169 5.70653 47.8666C5.63306 47.9091 5.53446 47.942 5.41073 47.9652C5.287 47.9884 5.14393 48 4.98153 48H4.16953C4.13086 48 4.11153 47.8067 4.11153 47.42C4.11153 47.0333 4.13086 46.84 4.16953 46.84H4.53493ZM5.73553 46.318C5.6698 46.318 5.61953 46.3373 5.58473 46.376C5.54993 46.4108 5.53253 46.4591 5.53253 46.521C5.53253 46.579 5.55186 46.6389 5.59053 46.7008C5.6292 46.7588 5.67753 46.8052 5.73553 46.84C5.79353 46.8129 5.84186 46.7685 5.88053 46.7066C5.9192 46.6409 5.93853 46.579 5.93853 46.521C5.93853 46.4591 5.92113 46.4108 5.88633 46.376C5.85153 46.3373 5.80126 46.318 5.73553 46.318ZM5.18453 44.926V44.085H6.28653V44.926H5.18453ZM7.62076 46.84C7.66329 46.84 7.69229 46.8342 7.70776 46.8226C7.72709 46.8071 7.73676 46.7839 7.73676 46.753V45.825H8.80976V46.753C8.80976 46.7762 8.81749 46.7975 8.83296 46.8168C8.85229 46.8323 8.87742 46.84 8.90836 46.84C8.94316 46.84 8.96829 46.8323 8.98376 46.8168C9.00309 46.8013 9.01276 46.7801 9.01276 46.753V45.825H10.0858V46.7472C10.0858 46.7743 10.0954 46.7975 10.1148 46.8168C10.1341 46.8323 10.1573 46.84 10.1844 46.84C10.2114 46.84 10.2346 46.8323 10.254 46.8168C10.2772 46.7975 10.2888 46.7743 10.2888 46.7472V45.825H11.3618V46.811C11.3618 47.1745 11.2535 47.4645 11.037 47.681C10.8243 47.8937 10.5362 48 10.1728 48C10.0374 48 9.91562 47.9845 9.80736 47.9536C9.69909 47.9188 9.60822 47.8666 9.53476 47.797C9.46129 47.8705 9.37622 47.9227 9.27956 47.9536C9.18289 47.9845 9.05529 48 8.89676 48C8.76142 48 8.63962 47.9845 8.53136 47.9536C8.42309 47.9188 8.33222 47.8666 8.25876 47.797C8.18529 47.8705 8.10022 47.9227 8.00356 47.9536C7.90689 47.9845 7.77929 48 7.62076 48H7.30176C7.26309 48 7.24376 47.8067 7.24376 47.42C7.24376 47.1725 7.24956 47.014 7.26116 46.9444C7.27276 46.8748 7.28629 46.84 7.30176 46.84H7.62076ZM15.2224 47.681C15.2224 48.0251 15.1605 48.3209 15.0368 48.5684C14.913 48.8159 14.7352 49.0053 14.5032 49.1368C14.275 49.2683 14.0024 49.334 13.6854 49.334H12.8154L12.7284 48.203H13.8884C13.9734 48.203 14.0372 48.1837 14.0798 48.145C14.1262 48.1102 14.1494 48.0619 14.1494 48H14.0044C13.5558 48 13.2349 47.9072 13.0416 47.7216C12.8521 47.5321 12.7574 47.2189 12.7574 46.782C12.7574 46.5345 12.8076 46.3122 12.9082 46.115C13.0126 45.9139 13.1556 45.7573 13.3374 45.6452C13.523 45.5331 13.7356 45.477 13.9754 45.477C14.3698 45.477 14.6752 45.5969 14.8918 45.8366C15.1122 46.0725 15.2224 46.4069 15.2224 46.84V47.681ZM13.8014 46.724C13.8014 46.7743 13.8072 46.8149 13.8188 46.8458C13.8342 46.8729 13.8555 46.8941 13.8826 46.9096C13.9135 46.9212 13.9541 46.927 14.0044 46.927H14.1784V46.753C14.1784 46.6795 14.1629 46.6235 14.132 46.5848C14.101 46.5423 14.0508 46.521 13.9812 46.521C13.9232 46.521 13.8787 46.5403 13.8478 46.579C13.8168 46.6138 13.8014 46.6621 13.8014 46.724ZM21.3706 46.7472C21.3706 46.7743 21.3803 46.7975 21.3996 46.8168C21.4189 46.8323 21.4421 46.84 21.4692 46.84C21.4963 46.84 21.5195 46.8323 21.5388 46.8168C21.562 46.7975 21.5736 46.7743 21.5736 46.7472V45.825H22.6466V46.811C22.6466 47.1745 22.5383 47.4645 22.3218 47.681C22.1091 47.8937 21.8211 48 21.4576 48C21.3223 48 21.2005 47.9845 21.0922 47.9536C20.9839 47.9188 20.8931 47.8666 20.8196 47.797C20.7616 47.8666 20.6901 47.9188 20.605 47.9536C20.5199 47.9845 20.4175 48 20.2976 48C20.2551 48 20.2125 47.9961 20.17 47.9884C20.1313 47.9807 20.0965 47.9691 20.0656 47.9536C20.0269 48.2397 19.9361 48.4853 19.793 48.6902C19.6499 48.899 19.4624 49.0575 19.2304 49.1658C19.0023 49.2779 18.7393 49.334 18.4416 49.334H18.1806C17.6741 49.334 17.2758 49.1832 16.9858 48.8816C16.6997 48.5839 16.5566 48.174 16.5566 47.652V46.405H17.6586V47.623C17.6586 47.8125 17.7031 47.9517 17.792 48.0406C17.8809 48.1295 18.0201 48.174 18.2096 48.174H18.4416C18.5653 48.174 18.6697 48.1547 18.7548 48.116C18.8437 48.0812 18.9095 48.029 18.952 47.9594C18.9984 47.8898 19.0216 47.8067 19.0216 47.71V45.825H20.0946V46.753C20.0946 46.7762 20.1023 46.7975 20.1178 46.8168C20.1371 46.8323 20.1623 46.84 20.1932 46.84C20.228 46.84 20.2531 46.8323 20.2686 46.8168C20.2879 46.8013 20.2976 46.7801 20.2976 46.753V45.825H21.3706V46.7472ZM20.3846 44.462V43.621H21.2546V44.462H20.3846ZM20.8138 45.477V44.636H21.6896V45.477H20.8138ZM19.9496 45.477V44.636H20.8254V45.477H19.9496ZM24.2708 47.681C24.2708 47.9981 24.2051 48.2823 24.0736 48.5336C23.946 48.7849 23.7604 48.9802 23.5168 49.1194C23.2771 49.2625 22.9968 49.334 22.6758 49.334H22.0088L21.9218 48.174H22.5888C22.7783 48.174 22.9214 48.1353 23.018 48.058C23.1186 47.9845 23.1688 47.8685 23.1688 47.71V45.825H24.2708V47.681ZM23.1688 45.477V44.636H24.2708V45.477H23.1688ZM26.2419 47.681C26.2419 47.9981 26.1762 48.2823 26.0447 48.5336C25.9171 48.7849 25.7315 48.9802 25.4879 49.1194C25.2482 49.2625 24.9679 49.334 24.6469 49.334H24.3569L24.2699 48.174H24.5599C24.7494 48.174 24.8925 48.1353 24.9891 48.058C25.0897 47.9845 25.1399 47.8685 25.1399 47.71V45.825H26.2419V47.681ZM29.2296 47.681C29.2296 48.0251 29.1677 48.3209 29.044 48.5684C28.9203 48.8159 28.7424 49.0053 28.5104 49.1368C28.2823 49.2683 28.0097 49.334 27.6926 49.334H26.8226L26.7356 48.203H27.8956C27.9807 48.203 28.0445 48.1837 28.087 48.145C28.1334 48.1102 28.1566 48.0619 28.1566 48H28.0116C27.5631 48 27.2421 47.9072 27.0488 47.7216C26.8593 47.5321 26.7646 47.2189 26.7646 46.782C26.7646 46.5345 26.8149 46.3122 26.9154 46.115C27.0198 45.9139 27.1629 45.7573 27.3446 45.6452C27.5302 45.5331 27.7429 45.477 27.9826 45.477C28.377 45.477 28.6825 45.5969 28.899 45.8366C29.1194 46.0725 29.2296 46.4069 29.2296 46.84V47.681ZM27.8086 46.724C27.8086 46.7743 27.8144 46.8149 27.826 46.8458C27.8415 46.8729 27.8627 46.8941 27.8898 46.9096C27.9207 46.9212 27.9613 46.927 28.0116 46.927H28.1856V46.753C28.1856 46.6795 28.1701 46.6235 28.1392 46.5848C28.1083 46.5423 28.058 46.521 27.9884 46.521C27.9304 46.521 27.8859 46.5403 27.855 46.579C27.8241 46.6138 27.8086 46.6621 27.8086 46.724ZM30.5638 46.898C30.5638 46.7704 30.5812 46.6467 30.616 46.5268C30.6508 46.4031 30.705 46.2793 30.7784 46.1556C30.8519 46.0319 30.9486 45.9023 31.0684 45.767L30.819 45.506L31.6078 44.723C32.0138 45.0942 32.3212 45.4016 32.53 45.6452C32.7388 45.8888 32.878 46.0995 32.9476 46.2774C33.0211 46.4514 33.0578 46.6389 33.0578 46.84C33.0578 47.072 33.0037 47.2808 32.8954 47.4664C32.7872 47.6481 32.6364 47.7931 32.443 47.9014C32.2497 48.0058 32.0293 48.058 31.7818 48.058C31.4068 48.058 31.109 47.9536 30.8886 47.7448C30.6721 47.5321 30.5638 47.2499 30.5638 46.898ZM32.0138 46.782C32.0138 46.7433 32.0061 46.7085 31.9906 46.6776C31.979 46.6428 31.9578 46.608 31.9268 46.5732C31.8998 46.5384 31.8611 46.5017 31.8108 46.463C31.7374 46.521 31.6852 46.5751 31.6542 46.6254C31.6233 46.6718 31.6078 46.724 31.6078 46.782C31.6078 46.8361 31.6252 46.8787 31.66 46.9096C31.6987 46.9405 31.749 46.956 31.8108 46.956C31.8495 46.956 31.8843 46.9502 31.9152 46.9386C31.9462 46.9231 31.9694 46.9038 31.9848 46.8806C32.0042 46.8535 32.0138 46.8207 32.0138 46.782ZM34.9705 46.84C34.9898 46.84 35.0033 46.8748 35.0111 46.9444C35.0227 47.014 35.0285 47.1725 35.0285 47.42C35.0285 47.6675 35.0227 47.826 35.0111 47.8956C35.0033 47.9652 34.9898 48 34.9705 48H34.6805C34.3093 48 34.027 47.8975 33.8337 47.6926C33.6442 47.4877 33.5495 47.1938 33.5495 46.811V44.288H34.6515V46.724C34.6515 46.7665 34.6592 46.7975 34.6747 46.8168C34.694 46.8323 34.7249 46.84 34.7675 46.84H34.9705ZM37.3777 43.012L37.5227 43.65L35.2027 44.491V43.795L37.3777 43.012ZM36.2757 46.84C36.3105 46.84 36.3376 46.8323 36.3569 46.8168C36.3801 46.7975 36.3917 46.7762 36.3917 46.753C36.3917 46.7337 36.384 46.7124 36.3685 46.6892C36.353 46.6621 36.3318 46.6351 36.3047 46.608L35.2027 45.535V44.723L37.5807 43.853L37.8417 44.955L36.6817 45.39L37.1457 45.854C37.4434 46.1517 37.6754 46.3702 37.8417 46.5094C38.0118 46.6447 38.1491 46.7337 38.2535 46.7762C38.3618 46.8187 38.4855 46.84 38.6247 46.84C38.6634 46.84 38.6827 47.0333 38.6827 47.42C38.6827 47.8067 38.6634 48 38.6247 48C38.3734 48 38.1762 47.9923 38.0331 47.9768C37.8939 47.9575 37.7779 47.9246 37.6851 47.8782C37.5923 47.8279 37.5034 47.7525 37.4183 47.652C37.3642 47.7216 37.2907 47.7835 37.1979 47.8376C37.109 47.8879 37.0026 47.9285 36.8789 47.9594C36.7552 47.9865 36.6218 48 36.4787 48H34.9707C34.932 48 34.9127 47.8067 34.9127 47.42C34.9127 47.1725 34.9185 47.014 34.9301 46.9444C34.9417 46.8748 34.9552 46.84 34.9707 46.84H36.2757ZM38.943 46.84C38.9856 46.84 39.0146 46.8342 39.03 46.8226C39.0494 46.8071 39.059 46.7839 39.059 46.753V45.825H40.132V46.753C40.132 46.7762 40.1398 46.7975 40.1552 46.8168C40.1746 46.8323 40.1997 46.84 40.2306 46.84C40.2654 46.84 40.2906 46.8323 40.306 46.8168C40.3254 46.8013 40.335 46.7801 40.335 46.753V45.825H41.408V46.7472C41.408 46.7743 41.4177 46.7975 41.437 46.8168C41.4564 46.8323 41.4796 46.84 41.5066 46.84C41.5337 46.84 41.5569 46.8323 41.5762 46.8168C41.5994 46.7975 41.611 46.7743 41.611 46.7472V45.825H42.684V46.811C42.684 47.1745 42.5758 47.4645 42.3592 47.681C42.1466 47.8937 41.8585 48 41.495 48C41.3597 48 41.2379 47.9845 41.1296 47.9536C41.0214 47.9188 40.9305 47.8666 40.857 47.797C40.7836 47.8705 40.6985 47.9227 40.6018 47.9536C40.5052 47.9845 40.3776 48 40.219 48C40.0837 48 39.9619 47.9845 39.8536 47.9536C39.7454 47.9188 39.6545 47.8666 39.581 47.797C39.5076 47.8705 39.4225 47.9227 39.3258 47.9536C39.2292 47.9845 39.1016 48 38.943 48H38.624C38.5854 48 38.566 47.8067 38.566 47.42C38.566 47.1725 38.5718 47.014 38.5834 46.9444C38.595 46.8748 38.6086 46.84 38.624 46.84H38.943ZM40.422 44.462V43.621H41.292V44.462H40.422ZM40.8512 45.477V44.636H41.727V45.477H40.8512ZM39.987 45.477V44.636H40.8628V45.477H39.987ZM45.6724 47.681C45.6724 48.0251 45.6105 48.3209 45.4868 48.5684C45.363 48.8159 45.1852 49.0053 44.9532 49.1368C44.725 49.2683 44.4524 49.334 44.1354 49.334H43.2654L43.1784 48.203H44.3384C44.4234 48.203 44.4872 48.1837 44.5298 48.145C44.5762 48.1102 44.5994 48.0619 44.5994 48H44.4544C44.0058 48 43.6849 47.9072 43.4916 47.7216C43.3021 47.5321 43.2074 47.2189 43.2074 46.782C43.2074 46.5345 43.2576 46.3122 43.3582 46.115C43.4626 45.9139 43.6056 45.7573 43.7874 45.6452C43.973 45.5331 44.1856 45.477 44.4254 45.477C44.8198 45.477 45.1252 45.5969 45.3418 45.8366C45.5622 46.0725 45.6724 46.4069 45.6724 46.84V47.681ZM44.2514 46.724C44.2514 46.7743 44.2572 46.8149 44.2688 46.8458C44.2842 46.8729 44.3055 46.8941 44.3326 46.9096C44.3635 46.9212 44.4041 46.927 44.4544 46.927H44.6284V46.753C44.6284 46.6795 44.6129 46.6235 44.582 46.5848C44.551 46.5423 44.5008 46.521 44.4312 46.521C44.3732 46.521 44.3287 46.5403 44.2978 46.579C44.2668 46.6138 44.2514 46.6621 44.2514 46.724ZM45.9588 48.174C46.1482 48.174 46.2913 48.1353 46.388 48.058C46.4885 47.9845 46.5388 47.8685 46.5388 47.71V45.825H47.6408V46.724C47.6408 46.7665 47.6485 46.7975 47.664 46.8168C47.6833 46.8323 47.7142 46.84 47.7568 46.84H47.9888C48.0274 46.84 48.0468 47.0333 48.0468 47.42C48.0468 47.8067 48.0274 48 47.9888 48H47.8728C47.8302 48 47.7858 47.9981 47.7394 47.9942C47.6968 47.9865 47.6582 47.9749 47.6234 47.9594C47.5886 48.2185 47.5035 48.4524 47.3682 48.6612C47.2367 48.87 47.0588 49.0343 46.8346 49.1542C46.6103 49.2741 46.3474 49.334 46.0458 49.334H45.7558L45.6688 48.174H45.9588ZM48.3927 46.84C48.3811 46.8091 48.3715 46.7743 48.3637 46.7356C48.356 46.6931 48.3483 46.6486 48.3405 46.6022C48.3367 46.5558 48.3347 46.5094 48.3347 46.463C48.3347 46.2619 48.3811 46.0686 48.4739 45.883C48.5706 45.6935 48.7117 45.5408 48.8973 45.4248C49.0868 45.3049 49.3149 45.245 49.5817 45.245C49.9723 45.245 50.2681 45.3591 50.4691 45.5872C50.6702 45.8115 50.7707 46.1421 50.7707 46.579V46.811C50.7707 47.1861 50.647 47.478 50.3995 47.6868C50.1559 47.8956 49.8157 48 49.3787 48H47.9867C47.9481 48 47.9287 47.8067 47.9287 47.42C47.9287 47.1725 47.9345 47.014 47.9461 46.9444C47.9577 46.8748 47.9713 46.84 47.9867 46.84H48.3927ZM49.7267 46.869C49.7383 46.8419 49.7461 46.8052 49.7499 46.7588C49.7538 46.7085 49.7557 46.6525 49.7557 46.5906C49.7557 46.5055 49.7383 46.4398 49.7035 46.3934C49.6726 46.3431 49.6223 46.318 49.5527 46.318C49.5179 46.318 49.487 46.3257 49.4599 46.3412C49.4367 46.3567 49.4174 46.3779 49.4019 46.405C49.3865 46.4321 49.3787 46.4611 49.3787 46.492C49.3787 46.55 49.3903 46.6041 49.4135 46.6544C49.4406 46.7047 49.4793 46.7491 49.5295 46.7878C49.5837 46.8226 49.6494 46.8497 49.7267 46.869ZM49.0307 44.926V44.085H50.1327V44.926H49.0307Z" fill="#198754"/>
</svg>
